<?xml version="1.0" encoding="utf-8"?>
<!-- Generator: Adobe Illustrator 23.0.1, SVG Export Plug-In . SVG Version: 6.00 Build 0)  -->
<svg version="1.1" id="Layer_1" xmlns="http://www.w3.org/2000/svg" xmlns:xlink="http://www.w3.org/1999/xlink" x="0px" y="0px"
	 viewBox="0 0 1417.3 1417.3" style="enable-background:new 0 0 1417.3 1417.3;" xml:space="preserve">
<style type="text/css">
	.st0{fill:#272727;}
	.st1{fill:url(#SVGID_1_);}
	.st2{fill:url(#SVGID_2_);}
</style>
<g>
	<g>
		<path class="st0" d="M563.5,891.2c-3.5-3.4-8.4-6.1-13.3-7.5c0,0,0,0,0,0c0,0,0,0,0,0c2.7-2.6,6-4.9,8.1-8
			c2.3-3.4,3.3-7.9,3.3-11.8c0-1.3-0.6-5.9-4.7-9.9c-1.9-1.8-4.6-3.4-7.4-4.4c-3.3-1.2-7.1-1-11.5-1c-3.1,0-6-0.1-8.3,0
			c-1.7,0.1-3.2,0.1-4.4,0.1c-0.5,0-1.3-0.1-2.3-0.1c-2.2-0.1-7.7,0-12.7,0c-1.3,0-1.6,0.6-1.6,0.7c0,0,0.1,0.7,1.3,0.7
			c1.5,0,4.3-0.2,5.1-0.1c4.2,0.6,4.2,3.3,4.4,6.4c0.2,3.4,0.2,6.6,0.2,23.3v18.6c0,10.5,0.3,19-0.2,23.5c-0.4,2.9-0.5,5.8-3,6.2
			c-1.1,0.2-4.6,0.1-5.6,0.1c-0.6,0-0.9,0.6-0.9,0.7c0,0.1,0.1,0.6,1.8,0.6c2.5,0,9,0.1,11.6,0c1,0,1.8,0,2,0c0.4,0,3.6-0.2,7.1,0
			c1.6,0,3.3,0,4.7,0.1c1.6,0.1,3.1,0.1,3.7,0.1l0,0c9.2,0,17.3-2,22.7-6.8c2.4-2.1,4-5.2,5.2-8c1.2-2.7,1.8-5.5,1.8-8.4
			C570.4,900.7,568,895.5,563.5,891.2 M532.2,853.2c0-0.4,0-0.5,1.2-0.7c1.6-0.2,3.5,0,4.6,0c2.2,0,3.7,0.8,5.4,1.8
			c1.6,1,2.7,2.2,3.8,4c1.9,3.1,3.2,6.3,3.2,11c0,4-0.8,7.2-2.9,9.9c-2,2.5-3.4,3.7-8.7,3.7c-3.3,0-5,0-5.7-0.1l-0.1,0
			c-0.6-0.1-0.6-0.1-0.6-0.4V853.2z M552.4,922.4c-3.3,2.7-7.1,2.9-8.6,2.9c-0.9,0-5.5-0.1-8.3-1.5c-2.7-1.4-3-2.4-3.2-8
			c-0.1-1.5-0.1-14.4-0.1-22.1v-6.3c0-0.2,0-0.3,0.3-0.3l0,0c1.8,0,6.5,0,7.7,0.2l0.1,0c2.3,0.3,4.4,1,7.6,3.3
			c8.3,6.2,9.4,16,9.4,20.1C557.1,915.9,555.5,919.8,552.4,922.4"/>
		<path class="st0" d="M609.8,929.3c-4.4,0-21.4,0-23.9,0c-1.7,0-2.3,0.1-2.3,0c-0.1-1.5,0.9-1.4,1.5-1.4c1,0,2.6,0,3.6-0.2
			c2.5-0.4,1.8-3.2,1.9-6c0.1-3.8,0.3-51.5,0.1-54.4c-0.2-2.7,0.7-4.7-3.6-5.2c-0.8-0.1-1.7-0.3-3.2-0.3c-1.2,0-1.6-0.5-1.6-1.4
			c0-0.1,0.5-0.1,1.8-0.1H609c1.3,0,2.5,0,2.5,0.2c0.1,1.5-1.1,1.3-1.9,1.3c-0.9,0-2.2,0.1-3.3,0.3c-3.1,0.5-2.2,2.7-2.4,5.4
			c-0.2,2.9-0.6,50.9,0,54.7c0.4,2.6,0,5.1,3.6,5.5c1.7,0.2,1.8,0.1,2.9,0.1c0.7,0,1.8,0.1,1.8,1.4"/>
		<path class="st0" d="M661.8,864.2c-7.2,0-13.4,1.2-17.7,5.9c-2.2,2.4-4.4,6.5-5.6,10c-1.2,3.7-1.2,8.2-1.2,12.9
			c0,5,0.7,9.6,2.1,13.8c1.3,4,3.2,7.6,5.7,10.5c4.9,5.9,11.6,9.1,19.1,9.1c2.5,0,9.7-0.6,15.2-5.5c2.7-2.4,4.6-5.4,6.1-9.1
			c1.7-4.3,1.9-11.1,1.9-17c0-9.8-2.7-16.5-7.8-22.3C674.9,867.2,668.6,864.2,661.8,864.2 M662.1,931c-6.5,0-12.4-1.1-17.6-3.3
			c-4.7-2-8.7-4.9-12-8.5c-5.8-6.4-9.1-15.3-9.1-24.3c0-8.2,3.5-17.1,9.3-23.6c5.1-5.7,14.4-12.4,30-12.4c5.6,0,10.8,0.8,15.6,2.4
			c4.8,1.6,8.9,3.9,12.4,6.8c7.3,6.2,11.2,15,11.2,25.3c0,10.2-3.9,19.6-10.9,26.6c-3.6,3.5-7.8,6.2-12.6,8.1
			C673.5,930,668,931,662.1,931"/>
		<path class="st0" d="M778.2,930.6c-0.7,0.3-2.5-0.5-7.4-5.3c-1-0.9-46.7-45.7-46.7-45.7l0.8,37.8c0.2,8.2,0.6,10,3.5,10.3
			c1.3,0.2,2.3,0.1,3.3,0.1c0.6,0,2.8-0.2,3,1.5c0,0.1-2.4-0.1-4.4-0.1h-18.8c-1.4,0-2.9,0.1-2.9,0c-0.1-1.6,1.4-1.4,1.9-1.4
			c0.9,0,2.5,0,3.4-0.1c3.3-0.4,3.5-3.2,3.5-11.6v-13.6c0-17.5,0.1-22.6,0.1-25.9c0-3,0.1-4.8,0-13.3c0-3.8,0.5-4.9,1.8-4.9
			c1.5,0,2.9,2.4,3.1,2.6c1.4,1.5,50.6,51.1,50.6,51.1l-0.5-41.7c0-2.8,0-4.7-0.5-6.4c-0.6-1.7-2-2.1-3.9-2.3c-1.3-0.2-1.9,0-2.9,0
			c-0.6,0-1.9-0.6-1.9-1.3c0-0.1,1.8-0.1,3.8-0.1c3.5,0,15.9,0,17.9,0c1.4,0,3.4,0,3.4,0.1c0,0.1-1.5,1.1-2,1.1
			c-0.9,0-3.2,0.7-4.1,0.8c-3,0.4-2.2,3.9-2.1,7.6l-0.9,53.8C779.6,923.9,780.1,929.8,778.2,930.6"/>
		<path class="st0" d="M828.8,929.3c-4.4,0-21.4,0-23.9,0c-1.7,0-2.3,0.1-2.3,0c-0.1-1.5,0.9-1.4,1.5-1.4c1,0,2.6,0,3.6-0.2
			c2.5-0.4,1.8-3.2,1.9-6c0.1-3.8,0.3-51.5,0.1-54.4c-0.2-2.7,0.7-4.7-3.6-5.2c-0.8-0.1-1.7-0.3-3.2-0.3c-1.2,0-1.6-0.5-1.6-1.4
			c0-0.1,0.5-0.1,1.8-0.1H828c1.3,0,2.5,0,2.5,0.2c0.1,1.5-1.1,1.3-1.9,1.3c-0.9,0-2.2,0.1-3.3,0.3c-3.1,0.5-2.2,2.7-2.4,5.4
			c-0.2,2.9-0.6,50.9,0,54.7c0.4,2.6,0,5.1,3.6,5.5c1.7,0.2,1.8,0.1,2.9,0.1c0.7,0,1.8,0.1,1.8,1.4"/>
		<path class="st0" d="M908.9,929.2c0-2-4-1-5.7-1.5c-2.7-0.9-4.2-3.5-4.5-3.8c-1.6-1.8-21.4-32.2-21.4-32.2l16.2-22.2l0.4-0.6
			c2.9-3.7,4.7-7,8.7-7.1c0.7,0,2.7,0.3,2.8-1.4c0-0.1-1.8,0-3.2,0c-1.8,0-13.4,0-16,0c-1.2,0-3.8,0.1-3.8,0.1
			c-0.1,1.7,2.7,1.4,3.5,1.3c1.2-0.1,4.1,1,2.3,3.9c-1.1,1.9-13.9,20.9-13.9,20.9s-7.4-12.5-12.7-20.7c-1.8-2.8,0.8-3.9,1.3-4.1
			c0.7-0.3,3.1,0.1,3.3-1.3c0,0-2.6-0.1-3.8-0.1c-2.6,0-20.3,0.1-22.1,0.1c-1.4,0-2.2,0-2.2,0.1c0.4,1.9,3.4,1.1,4.9,1.6
			c3,0.9,5.2,4.2,7.7,7.9l16.1,25.8l-18.3,24.9c-2.7,3.7-3.3,5.7-6.9,6.9c-1.5,0.5-5.2-0.5-5,1.6c0,0.1,0.3,0,1.7,0
			c1.8,0,15.3,0,17.9,0c1.2,0,3.5,0,3.5-0.1c0-1.3-1.4-1.1-2.1-1.1c-0.6,0-2.6-0.4-2.9-0.9c-0.7-1.3-0.4-2.3,0.9-4.2l14.4-22.5
			c0,0,9.8,15.6,15.7,25.1c0.5,0.7,0.5,2-0.7,2.1c-0.6,0.1-2.1-0.2-2.1,1.5c0,0.1,2.3,0,5.1,0.1c4,0.2,11.7,0,17.5,0L908.9,929.2z"
			/>
		<path class="st0" d="M666.1,985.4c-2.5,0-4.7-0.3-6.6-0.9c-1.8-0.6-3.3-1.5-4.7-2.7c-2.8-2.4-4.2-5.8-4.2-10
			c0-0.8,0.1-2.4,0.8-4.3c0.7-1.9,1.7-3.5,3.1-4.9c2.5-2.4,5.9-3.6,10.5-3.6c0.8,0,3,0,5,0.4c0.7,0.1,3.6,0.5,3.6,0.6
			c0,0,0.1,1.6,0.1,4.5c0,0.7-0.1,2.1-0.2,2.1c-1.4-0.2-0.8-4.1-2.4-4.6c-1.5-0.4-4.2-1.1-6.3-1.1c-2.1,0-4.5,0.9-5.7,1.8
			c-1.2,0.9-2.6,2.5-3.1,4.1c-0.4,1.3-0.7,3-0.7,4.9c0,1.6,0.4,4,1,5.5c0.7,2,4.3,6,8,6.4c2.6,0.3,6.7,0.5,7.8-1.6
			c0.7-1.4,0.4-2.7,1.4-2.7c0.2,0,0.1,0.7,0.1,0.8c-0.1,2.2,0,3.6-0.2,4.1c-0.2,0.5-0.6,0.6-1,0.8
			C671.1,985.5,668.7,985.4,666.1,985.4"/>
		<path class="st0" d="M691.1,984.8c1.6,0,2.5-0.1,2.7-0.5c0.2-0.5,0.1-4,0-4.1c-0.4-0.1-0.6,0.7-0.6,1.6c0,1.2-0.6,1.5-1.4,1.6
			c-1,0.1-2.5,0.1-3.6,0.1c-2.9,0-3.1-0.5-3.6-0.9c-0.7-0.5-0.6-15.5-0.6-16.4c0.1-1.2,0.1-2,0.8-2.2c0.4-0.1,2.3-0.2,2.3-1h-1.3
			h-6.6c-0.4,0-2.1-0.1-2.1,0.1c0.1,0.8,1,0.3,1.6,0.4c1.2,0.3,1.7,1.1,1.7,1.9c0.1,0.9,0.2,16.5,0,17.7c0,0-0.1,0.9-1.7,1
			c-0.3,0-1.1-0.1-1.1,0.6c0,0,1.8,0,2.3,0H691.1z"/>
		<path class="st0" d="M705,984.8c-1.3,0-6.6,0-7.4,0c-0.5,0-0.7,0-0.7,0c0-0.5,0.3-0.4,0.5-0.4c0.3,0,0.8,0,1.1-0.1
			c0.8-0.1,0.6-1,0.6-1.8c0-1.2,0.1-15.8,0-16.7c-0.1-0.8,0.2-1.4-1.1-1.6c-0.3,0-0.5-0.1-1-0.1c-0.4,0-0.5-0.2-0.5-0.4
			c0,0,0.1,0,0.6,0h7.6c0.4,0,0.8,0,0.8,0c0,0.5-0.3,0.4-0.6,0.4c-0.3,0-0.7,0-1,0.1c-1,0.2-0.7,0.8-0.7,1.7
			c-0.1,0.9-0.2,15.7,0,16.8c0.1,0.8,0,1.6,1.1,1.7c0.5,0.1,0.5,0,0.9,0c0.2,0,0.5,0,0.5,0.4"/>
		<path class="st0" d="M730.9,985.2c-0.2,0.1-0.8-0.2-2.3-1.6c-0.3-0.3-14.4-14.1-14.4-14.1l0.2,11.6c0.1,2.5,0.2,3.1,1.1,3.2
			c0.4,0.1,0.7,0,1,0c0.2,0,0.9-0.1,0.9,0.5c0,0-0.7,0-1.3,0h-5.8c-0.4,0-0.9,0-0.9,0c0-0.5,0.4-0.4,0.6-0.4c0.3,0,0.8,0,1,0
			c1-0.1,1.1-1,1.1-3.6v-4.2c0-5.4,0-6.9,0-8c0-0.9,0-1.5,0-4.1c0-1.2,0.1-1.5,0.6-1.5c0.5,0,0.9,0.7,1,0.8
			c0.4,0.5,15.6,15.7,15.6,15.7l-0.2-12.8c0-0.9,0-1.4-0.2-2c-0.2-0.5-0.6-0.6-1.2-0.7c-0.4-0.1-0.6,0-0.9,0c-0.2,0-0.6-0.2-0.6-0.4
			c0,0,0.6,0,1.2,0c1.1,0,4.9,0,5.5,0c0.4,0,1.1,0,1.1,0c0,0-0.4,0.3-0.6,0.3c-0.3,0-1,0.2-1.2,0.2c-0.9,0.1-0.7,1.2-0.7,2.4
			l-0.3,16.5C731.3,983.2,731.5,985,730.9,985.2"/>
		<path class="st0" d="M746.4,984.8c-1.3,0-6.6,0-7.4,0c-0.5,0-0.7,0-0.7,0c0-0.5,0.3-0.4,0.5-0.4c0.3,0,0.8,0,1.1-0.1
			c0.8-0.1,0.6-1,0.6-1.8c0-1.2,0.1-15.8,0-16.7c-0.1-0.8,0.2-1.4-1.1-1.6c-0.3,0-0.5-0.1-1-0.1c-0.4,0-0.5-0.2-0.5-0.4
			c0,0,0.1,0,0.6,0h7.6c0.4,0,0.8,0,0.8,0c0,0.5-0.3,0.4-0.6,0.4c-0.3,0-0.7,0-1,0.1c-1,0.2-0.7,0.8-0.7,1.7
			c-0.1,0.9-0.2,15.7,0,16.8c0.1,0.8,0,1.6,1.1,1.7c0.5,0.1,0.5,0,0.9,0c0.2,0,0.5,0,0.5,0.4"/>
		<path class="st0" d="M763.7,985.4c-2.2,0-4-0.3-5.6-0.8c-1.5-0.5-2.8-1.3-4-2.3c-2.3-2.1-3.5-4.9-3.5-8.5c0-0.7,0.1-2,0.7-3.7
			c0.6-1.6,1.4-3,2.6-4.1c2.1-2.1,5-3.1,8.9-3.1c0.7,0,2.5,0,4.2,0.3c0.6,0.1,3,0.4,3,0.5c0,0,0.1,1.4,0.1,3.8
			c0,0.6-0.1,1.8-0.1,1.8c-1.2-0.2-0.7-3.5-2-3.9c-1.2-0.4-3.6-0.9-5.3-0.9c-1.7,0-3.8,0.7-4.8,1.5c-1,0.7-2.2,2.1-2.6,3.4
			c-0.4,1.1-0.6,2.5-0.6,4.2c0,1.4,0.4,3.4,0.8,4.7c0.6,1.7,3.6,5,6.8,5.4c2.2,0.3,5.7,0.4,6.6-1.4c0.6-1.2,0.4-2.3,1.2-2.3
			c0.2,0,0.1,0.6,0.1,0.6c-0.1,1.8,0,3.1-0.1,3.5c-0.1,0.5-0.5,0.5-0.9,0.7C768,985.5,765.9,985.4,763.7,985.4"/>
	</g>
	<linearGradient id="SVGID_1_" gradientUnits="userSpaceOnUse" x1="666.6007" y1="399.3839" x2="660.1526" y2="823.3486">
		<stop  offset="0" style="stop-color:#F4D5AA"/>
		<stop  offset="0.1552" style="stop-color:#EFCFA1"/>
		<stop  offset="0.4117" style="stop-color:#E1BE88"/>
		<stop  offset="0.5674" style="stop-color:#D7B175"/>
		<stop  offset="0.99" style="stop-color:#8F6A38"/>
		<stop  offset="1" style="stop-color:#8F6A38"/>
	</linearGradient>
	<path class="st1" d="M622.2,475.5c0,24.3,19.8,45.8,43.6,45.8c25.2,0,42.8-18.2,42.8-45.1c0-22.2-13.7-44.3-40.3-44.4
		c-0.1,0-0.1,0-0.2,0C640.4,431.9,622.2,447.5,622.2,475.5"/>
	<linearGradient id="SVGID_2_" gradientUnits="userSpaceOnUse" x1="714.3505" y1="400.1102" x2="707.9023" y2="824.0749">
		<stop  offset="0" style="stop-color:#F4D5AA"/>
		<stop  offset="0.1552" style="stop-color:#EFCFA1"/>
		<stop  offset="0.4117" style="stop-color:#E1BE88"/>
		<stop  offset="0.5674" style="stop-color:#D7B175"/>
		<stop  offset="0.99" style="stop-color:#8F6A38"/>
		<stop  offset="1" style="stop-color:#8F6A38"/>
	</linearGradient>
	<path class="st2" d="M732.1,462c3.5,16.9-0.1,30.7-0.1,30.7s3.5-0.7,9.9,4.5c6.4,5.1,14.9,10.9,19,29.8
		c4.1,18.9,0.8,44.3-14.7,59.5c-15.5,15.2-36.8,12.6-36.8,12.6v49c0,0,23.6,0.1,34,10.5c20.7,20.7,23.1,46.9,15.4,67.2
		c-7.7,20.3-26,33.7-51.8,33.5c-25.8-0.2-36.2-13.9-44.7-27.8c-8.4-13.9-10.2-44.7-9.7-60.8c0.5-16.1,2.1-52.7,3.4-74.8
		c1.3-22.2-2.1-51.8-2.1-51.8s-9.7-2.9-22.8-9.3c-12.7-6.1-24.5-22.2-24.5-22.2s0.2,75.4,0,84.6c-0.2,9.2-7,103.2,0,129.2
		c5.4,30,38.6,81.8,102,80.4c67.3-1.5,94-50.4,101.8-73.4c23.9-70.5-32.1-110.7-32.1-110.7s11.4-10.4,19.7-23
		c12.4-18.9,16.3-40.4,16.4-56.7c0.1-12.9-0.7-40.4-27.5-69.7c-26.8-29.3-64.2-33.1-64.2-33.1S728.6,445.2,732.1,462"/>
</g>
</svg>
